<?xml version="1.0" standalone="yes"?>
<svg xmlns="http://www.w3.org/2000/svg" version="1.1" width="256" height="256" viewBox="-18 -18 292 292">
  <rect x="-18" y="-18" width="292" height="292" style="fill:#ffffff;shape-rendering:crispEdges;"/>
  <rect x="0" y="0" width="8.827586206896552" height="8.827586206896552" style="fill:#020617;shape-rendering:crispEdges;"/>
  <rect x="8.827586206896552" y="0" width="8.827586206896552" height="8.827586206896552" style="fill:#020617;shape-rendering:crispEdges;"/>
  <rect x="17.655172413793103" y="0" width="8.827586206896552" height="8.827586206896552" style="fill:#020617;shape-rendering:crispEdges;"/>
  <rect x="26.482758620689655" y="0" width="8.827586206896552" height="8.827586206896552" style="fill:#020617;shape-rendering:crispEdges;"/>
  <rect x="35.310344827586206" y="0" width="8.827586206896552" height="8.827586206896552" style="fill:#020617;shape-rendering:crispEdges;"/>
  <rect x="44.13793103448276" y="0" width="8.827586206896552" height="8.827586206896552" style="fill:#020617;shape-rendering:crispEdges;"/>
  <rect x="52.96551724137931" y="0" width="8.827586206896552" height="8.827586206896552" style="fill:#020617;shape-rendering:crispEdges;"/>
  <rect x="88.27586206896552" y="0" width="8.827586206896552" height="8.827586206896552" style="fill:#020617;shape-rendering:crispEdges;"/>
  <rect x="97.10344827586206" y="0" width="8.827586206896552" height="8.827586206896552" style="fill:#020617;shape-rendering:crispEdges;"/>
  <rect x="105.93103448275862" y="0" width="8.827586206896552" height="8.827586206896552" style="fill:#020617;shape-rendering:crispEdges;"/>
  <rect x="132.41379310344828" y="0" width="8.827586206896552" height="8.827586206896552" style="fill:#020617;shape-rendering:crispEdges;"/>
  <rect x="141.24137931034483" y="0" width="8.827586206896552" height="8.827586206896552" style="fill:#020617;shape-rendering:crispEdges;"/>
  <rect x="158.89655172413794" y="0" width="8.827586206896552" height="8.827586206896552" style="fill:#020617;shape-rendering:crispEdges;"/>
  <rect x="194.20689655172413" y="0" width="8.827586206896552" height="8.827586206896552" style="fill:#020617;shape-rendering:crispEdges;"/>
  <rect x="203.0344827586207" y="0" width="8.827586206896552" height="8.827586206896552" style="fill:#020617;shape-rendering:crispEdges;"/>
  <rect x="211.86206896551724" y="0" width="8.827586206896552" height="8.827586206896552" style="fill:#020617;shape-rendering:crispEdges;"/>
  <rect x="220.68965517241378" y="0" width="8.827586206896552" height="8.827586206896552" style="fill:#020617;shape-rendering:crispEdges;"/>
  <rect x="229.51724137931035" y="0" width="8.827586206896552" height="8.827586206896552" style="fill:#020617;shape-rendering:crispEdges;"/>
  <rect x="238.3448275862069" y="0" width="8.827586206896552" height="8.827586206896552" style="fill:#020617;shape-rendering:crispEdges;"/>
  <rect x="247.17241379310343" y="0" width="8.827586206896552" height="8.827586206896552" style="fill:#020617;shape-rendering:crispEdges;"/>
  <rect x="0" y="8.827586206896552" width="8.827586206896552" height="8.827586206896552" style="fill:#020617;shape-rendering:crispEdges;"/>
  <rect x="52.96551724137931" y="8.827586206896552" width="8.827586206896552" height="8.827586206896552" style="fill:#020617;shape-rendering:crispEdges;"/>
  <rect x="88.27586206896552" y="8.827586206896552" width="8.827586206896552" height="8.827586206896552" style="fill:#020617;shape-rendering:crispEdges;"/>
  <rect x="114.75862068965517" y="8.827586206896552" width="8.827586206896552" height="8.827586206896552" style="fill:#020617;shape-rendering:crispEdges;"/>
  <rect x="123.58620689655172" y="8.827586206896552" width="8.827586206896552" height="8.827586206896552" style="fill:#020617;shape-rendering:crispEdges;"/>
  <rect x="141.24137931034483" y="8.827586206896552" width="8.827586206896552" height="8.827586206896552" style="fill:#020617;shape-rendering:crispEdges;"/>
  <rect x="150.06896551724137" y="8.827586206896552" width="8.827586206896552" height="8.827586206896552" style="fill:#020617;shape-rendering:crispEdges;"/>
  <rect x="176.55172413793105" y="8.827586206896552" width="8.827586206896552" height="8.827586206896552" style="fill:#020617;shape-rendering:crispEdges;"/>
  <rect x="194.20689655172413" y="8.827586206896552" width="8.827586206896552" height="8.827586206896552" style="fill:#020617;shape-rendering:crispEdges;"/>
  <rect x="247.17241379310343" y="8.827586206896552" width="8.827586206896552" height="8.827586206896552" style="fill:#020617;shape-rendering:crispEdges;"/>
  <rect x="0" y="17.655172413793103" width="8.827586206896552" height="8.827586206896552" style="fill:#020617;shape-rendering:crispEdges;"/>
  <rect x="17.655172413793103" y="17.655172413793103" width="8.827586206896552" height="8.827586206896552" style="fill:#020617;shape-rendering:crispEdges;"/>
  <rect x="26.482758620689655" y="17.655172413793103" width="8.827586206896552" height="8.827586206896552" style="fill:#020617;shape-rendering:crispEdges;"/>
  <rect x="35.310344827586206" y="17.655172413793103" width="8.827586206896552" height="8.827586206896552" style="fill:#020617;shape-rendering:crispEdges;"/>
  <rect x="52.96551724137931" y="17.655172413793103" width="8.827586206896552" height="8.827586206896552" style="fill:#020617;shape-rendering:crispEdges;"/>
  <rect x="70.62068965517241" y="17.655172413793103" width="8.827586206896552" height="8.827586206896552" style="fill:#020617;shape-rendering:crispEdges;"/>
  <rect x="97.10344827586206" y="17.655172413793103" width="8.827586206896552" height="8.827586206896552" style="fill:#020617;shape-rendering:crispEdges;"/>
  <rect x="114.75862068965517" y="17.655172413793103" width="8.827586206896552" height="8.827586206896552" style="fill:#020617;shape-rendering:crispEdges;"/>
  <rect x="141.24137931034483" y="17.655172413793103" width="8.827586206896552" height="8.827586206896552" style="fill:#020617;shape-rendering:crispEdges;"/>
  <rect x="158.89655172413794" y="17.655172413793103" width="8.827586206896552" height="8.827586206896552" style="fill:#020617;shape-rendering:crispEdges;"/>
  <rect x="194.20689655172413" y="17.655172413793103" width="8.827586206896552" height="8.827586206896552" style="fill:#020617;shape-rendering:crispEdges;"/>
  <rect x="211.86206896551724" y="17.655172413793103" width="8.827586206896552" height="8.827586206896552" style="fill:#020617;shape-rendering:crispEdges;"/>
  <rect x="220.68965517241378" y="17.655172413793103" width="8.827586206896552" height="8.827586206896552" style="fill:#020617;shape-rendering:crispEdges;"/>
  <rect x="229.51724137931035" y="17.655172413793103" width="8.827586206896552" height="8.827586206896552" style="fill:#020617;shape-rendering:crispEdges;"/>
  <rect x="247.17241379310343" y="17.655172413793103" width="8.827586206896552" height="8.827586206896552" style="fill:#020617;shape-rendering:crispEdges;"/>
  <rect x="0" y="26.482758620689655" width="8.827586206896552" height="8.827586206896552" style="fill:#020617;shape-rendering:crispEdges;"/>
  <rect x="17.655172413793103" y="26.482758620689655" width="8.827586206896552" height="8.827586206896552" style="fill:#020617;shape-rendering:crispEdges;"/>
  <rect x="26.482758620689655" y="26.482758620689655" width="8.827586206896552" height="8.827586206896552" style="fill:#020617;shape-rendering:crispEdges;"/>
  <rect x="35.310344827586206" y="26.482758620689655" width="8.827586206896552" height="8.827586206896552" style="fill:#020617;shape-rendering:crispEdges;"/>
  <rect x="52.96551724137931" y="26.482758620689655" width="8.827586206896552" height="8.827586206896552" style="fill:#020617;shape-rendering:crispEdges;"/>
  <rect x="70.62068965517241" y="26.482758620689655" width="8.827586206896552" height="8.827586206896552" style="fill:#020617;shape-rendering:crispEdges;"/>
  <rect x="79.44827586206897" y="26.482758620689655" width="8.827586206896552" height="8.827586206896552" style="fill:#020617;shape-rendering:crispEdges;"/>
  <rect x="88.27586206896552" y="26.482758620689655" width="8.827586206896552" height="8.827586206896552" style="fill:#020617;shape-rendering:crispEdges;"/>
  <rect x="123.58620689655172" y="26.482758620689655" width="8.827586206896552" height="8.827586206896552" style="fill:#020617;shape-rendering:crispEdges;"/>
  <rect x="141.24137931034483" y="26.482758620689655" width="8.827586206896552" height="8.827586206896552" style="fill:#020617;shape-rendering:crispEdges;"/>
  <rect x="150.06896551724137" y="26.482758620689655" width="8.827586206896552" height="8.827586206896552" style="fill:#020617;shape-rendering:crispEdges;"/>
  <rect x="194.20689655172413" y="26.482758620689655" width="8.827586206896552" height="8.827586206896552" style="fill:#020617;shape-rendering:crispEdges;"/>
  <rect x="211.86206896551724" y="26.482758620689655" width="8.827586206896552" height="8.827586206896552" style="fill:#020617;shape-rendering:crispEdges;"/>
  <rect x="220.68965517241378" y="26.482758620689655" width="8.827586206896552" height="8.827586206896552" style="fill:#020617;shape-rendering:crispEdges;"/>
  <rect x="229.51724137931035" y="26.482758620689655" width="8.827586206896552" height="8.827586206896552" style="fill:#020617;shape-rendering:crispEdges;"/>
  <rect x="247.17241379310343" y="26.482758620689655" width="8.827586206896552" height="8.827586206896552" style="fill:#020617;shape-rendering:crispEdges;"/>
  <rect x="0" y="35.310344827586206" width="8.827586206896552" height="8.827586206896552" style="fill:#020617;shape-rendering:crispEdges;"/>
  <rect x="17.655172413793103" y="35.310344827586206" width="8.827586206896552" height="8.827586206896552" style="fill:#020617;shape-rendering:crispEdges;"/>
  <rect x="26.482758620689655" y="35.310344827586206" width="8.827586206896552" height="8.827586206896552" style="fill:#020617;shape-rendering:crispEdges;"/>
  <rect x="35.310344827586206" y="35.310344827586206" width="8.827586206896552" height="8.827586206896552" style="fill:#020617;shape-rendering:crispEdges;"/>
  <rect x="52.96551724137931" y="35.310344827586206" width="8.827586206896552" height="8.827586206896552" style="fill:#020617;shape-rendering:crispEdges;"/>
  <rect x="88.27586206896552" y="35.310344827586206" width="8.827586206896552" height="8.827586206896552" style="fill:#020617;shape-rendering:crispEdges;"/>
  <rect x="132.41379310344828" y="35.310344827586206" width="8.827586206896552" height="8.827586206896552" style="fill:#020617;shape-rendering:crispEdges;"/>
  <rect x="150.06896551724137" y="35.310344827586206" width="8.827586206896552" height="8.827586206896552" style="fill:#020617;shape-rendering:crispEdges;"/>
  <rect x="158.89655172413794" y="35.310344827586206" width="8.827586206896552" height="8.827586206896552" style="fill:#020617;shape-rendering:crispEdges;"/>
  <rect x="194.20689655172413" y="35.310344827586206" width="8.827586206896552" height="8.827586206896552" style="fill:#020617;shape-rendering:crispEdges;"/>
  <rect x="211.86206896551724" y="35.310344827586206" width="8.827586206896552" height="8.827586206896552" style="fill:#020617;shape-rendering:crispEdges;"/>
  <rect x="220.68965517241378" y="35.310344827586206" width="8.827586206896552" height="8.827586206896552" style="fill:#020617;shape-rendering:crispEdges;"/>
  <rect x="229.51724137931035" y="35.310344827586206" width="8.827586206896552" height="8.827586206896552" style="fill:#020617;shape-rendering:crispEdges;"/>
  <rect x="247.17241379310343" y="35.310344827586206" width="8.827586206896552" height="8.827586206896552" style="fill:#020617;shape-rendering:crispEdges;"/>
  <rect x="0" y="44.13793103448276" width="8.827586206896552" height="8.827586206896552" style="fill:#020617;shape-rendering:crispEdges;"/>
  <rect x="52.96551724137931" y="44.13793103448276" width="8.827586206896552" height="8.827586206896552" style="fill:#020617;shape-rendering:crispEdges;"/>
  <rect x="88.27586206896552" y="44.13793103448276" width="8.827586206896552" height="8.827586206896552" style="fill:#020617;shape-rendering:crispEdges;"/>
  <rect x="97.10344827586206" y="44.13793103448276" width="8.827586206896552" height="8.827586206896552" style="fill:#020617;shape-rendering:crispEdges;"/>
  <rect x="132.41379310344828" y="44.13793103448276" width="8.827586206896552" height="8.827586206896552" style="fill:#020617;shape-rendering:crispEdges;"/>
  <rect x="167.72413793103448" y="44.13793103448276" width="8.827586206896552" height="8.827586206896552" style="fill:#020617;shape-rendering:crispEdges;"/>
  <rect x="176.55172413793105" y="44.13793103448276" width="8.827586206896552" height="8.827586206896552" style="fill:#020617;shape-rendering:crispEdges;"/>
  <rect x="194.20689655172413" y="44.13793103448276" width="8.827586206896552" height="8.827586206896552" style="fill:#020617;shape-rendering:crispEdges;"/>
  <rect x="247.17241379310343" y="44.13793103448276" width="8.827586206896552" height="8.827586206896552" style="fill:#020617;shape-rendering:crispEdges;"/>
  <rect x="0" y="52.96551724137931" width="8.827586206896552" height="8.827586206896552" style="fill:#020617;shape-rendering:crispEdges;"/>
  <rect x="8.827586206896552" y="52.96551724137931" width="8.827586206896552" height="8.827586206896552" style="fill:#020617;shape-rendering:crispEdges;"/>
  <rect x="17.655172413793103" y="52.96551724137931" width="8.827586206896552" height="8.827586206896552" style="fill:#020617;shape-rendering:crispEdges;"/>
  <rect x="26.482758620689655" y="52.96551724137931" width="8.827586206896552" height="8.827586206896552" style="fill:#020617;shape-rendering:crispEdges;"/>
  <rect x="35.310344827586206" y="52.96551724137931" width="8.827586206896552" height="8.827586206896552" style="fill:#020617;shape-rendering:crispEdges;"/>
  <rect x="44.13793103448276" y="52.96551724137931" width="8.827586206896552" height="8.827586206896552" style="fill:#020617;shape-rendering:crispEdges;"/>
  <rect x="52.96551724137931" y="52.96551724137931" width="8.827586206896552" height="8.827586206896552" style="fill:#020617;shape-rendering:crispEdges;"/>
  <rect x="70.62068965517241" y="52.96551724137931" width="8.827586206896552" height="8.827586206896552" style="fill:#020617;shape-rendering:crispEdges;"/>
  <rect x="88.27586206896552" y="52.96551724137931" width="8.827586206896552" height="8.827586206896552" style="fill:#020617;shape-rendering:crispEdges;"/>
  <rect x="105.93103448275862" y="52.96551724137931" width="8.827586206896552" height="8.827586206896552" style="fill:#020617;shape-rendering:crispEdges;"/>
  <rect x="123.58620689655172" y="52.96551724137931" width="8.827586206896552" height="8.827586206896552" style="fill:#020617;shape-rendering:crispEdges;"/>
  <rect x="141.24137931034483" y="52.96551724137931" width="8.827586206896552" height="8.827586206896552" style="fill:#020617;shape-rendering:crispEdges;"/>
  <rect x="158.89655172413794" y="52.96551724137931" width="8.827586206896552" height="8.827586206896552" style="fill:#020617;shape-rendering:crispEdges;"/>
  <rect x="176.55172413793105" y="52.96551724137931" width="8.827586206896552" height="8.827586206896552" style="fill:#020617;shape-rendering:crispEdges;"/>
  <rect x="194.20689655172413" y="52.96551724137931" width="8.827586206896552" height="8.827586206896552" style="fill:#020617;shape-rendering:crispEdges;"/>
  <rect x="203.0344827586207" y="52.96551724137931" width="8.827586206896552" height="8.827586206896552" style="fill:#020617;shape-rendering:crispEdges;"/>
  <rect x="211.86206896551724" y="52.96551724137931" width="8.827586206896552" height="8.827586206896552" style="fill:#020617;shape-rendering:crispEdges;"/>
  <rect x="220.68965517241378" y="52.96551724137931" width="8.827586206896552" height="8.827586206896552" style="fill:#020617;shape-rendering:crispEdges;"/>
  <rect x="229.51724137931035" y="52.96551724137931" width="8.827586206896552" height="8.827586206896552" style="fill:#020617;shape-rendering:crispEdges;"/>
  <rect x="238.3448275862069" y="52.96551724137931" width="8.827586206896552" height="8.827586206896552" style="fill:#020617;shape-rendering:crispEdges;"/>
  <rect x="247.17241379310343" y="52.96551724137931" width="8.827586206896552" height="8.827586206896552" style="fill:#020617;shape-rendering:crispEdges;"/>
  <rect x="70.62068965517241" y="61.79310344827586" width="8.827586206896552" height="8.827586206896552" style="fill:#020617;shape-rendering:crispEdges;"/>
  <rect x="150.06896551724137" y="61.79310344827586" width="8.827586206896552" height="8.827586206896552" style="fill:#020617;shape-rendering:crispEdges;"/>
  <rect x="158.89655172413794" y="61.79310344827586" width="8.827586206896552" height="8.827586206896552" style="fill:#020617;shape-rendering:crispEdges;"/>
  <rect x="167.72413793103448" y="61.79310344827586" width="8.827586206896552" height="8.827586206896552" style="fill:#020617;shape-rendering:crispEdges;"/>
  <rect x="35.310344827586206" y="70.62068965517241" width="8.827586206896552" height="8.827586206896552" style="fill:#020617;shape-rendering:crispEdges;"/>
  <rect x="52.96551724137931" y="70.62068965517241" width="8.827586206896552" height="8.827586206896552" style="fill:#020617;shape-rendering:crispEdges;"/>
  <rect x="61.79310344827586" y="70.62068965517241" width="8.827586206896552" height="8.827586206896552" style="fill:#020617;shape-rendering:crispEdges;"/>
  <rect x="70.62068965517241" y="70.62068965517241" width="8.827586206896552" height="8.827586206896552" style="fill:#020617;shape-rendering:crispEdges;"/>
  <rect x="123.58620689655172" y="70.62068965517241" width="8.827586206896552" height="8.827586206896552" style="fill:#020617;shape-rendering:crispEdges;"/>
  <rect x="132.41379310344828" y="70.62068965517241" width="8.827586206896552" height="8.827586206896552" style="fill:#020617;shape-rendering:crispEdges;"/>
  <rect x="141.24137931034483" y="70.62068965517241" width="8.827586206896552" height="8.827586206896552" style="fill:#020617;shape-rendering:crispEdges;"/>
  <rect x="167.72413793103448" y="70.62068965517241" width="8.827586206896552" height="8.827586206896552" style="fill:#020617;shape-rendering:crispEdges;"/>
  <rect x="176.55172413793105" y="70.62068965517241" width="8.827586206896552" height="8.827586206896552" style="fill:#020617;shape-rendering:crispEdges;"/>
  <rect x="185.3793103448276" y="70.62068965517241" width="8.827586206896552" height="8.827586206896552" style="fill:#020617;shape-rendering:crispEdges;"/>
  <rect x="194.20689655172413" y="70.62068965517241" width="8.827586206896552" height="8.827586206896552" style="fill:#020617;shape-rendering:crispEdges;"/>
  <rect x="220.68965517241378" y="70.62068965517241" width="8.827586206896552" height="8.827586206896552" style="fill:#020617;shape-rendering:crispEdges;"/>
  <rect x="229.51724137931035" y="70.62068965517241" width="8.827586206896552" height="8.827586206896552" style="fill:#020617;shape-rendering:crispEdges;"/>
  <rect x="0" y="79.44827586206897" width="8.827586206896552" height="8.827586206896552" style="fill:#020617;shape-rendering:crispEdges;"/>
  <rect x="8.827586206896552" y="79.44827586206897" width="8.827586206896552" height="8.827586206896552" style="fill:#020617;shape-rendering:crispEdges;"/>
  <rect x="17.655172413793103" y="79.44827586206897" width="8.827586206896552" height="8.827586206896552" style="fill:#020617;shape-rendering:crispEdges;"/>
  <rect x="26.482758620689655" y="79.44827586206897" width="8.827586206896552" height="8.827586206896552" style="fill:#020617;shape-rendering:crispEdges;"/>
  <rect x="61.79310344827586" y="79.44827586206897" width="8.827586206896552" height="8.827586206896552" style="fill:#020617;shape-rendering:crispEdges;"/>
  <rect x="70.62068965517241" y="79.44827586206897" width="8.827586206896552" height="8.827586206896552" style="fill:#020617;shape-rendering:crispEdges;"/>
  <rect x="79.44827586206897" y="79.44827586206897" width="8.827586206896552" height="8.827586206896552" style="fill:#020617;shape-rendering:crispEdges;"/>
  <rect x="114.75862068965517" y="79.44827586206897" width="8.827586206896552" height="8.827586206896552" style="fill:#020617;shape-rendering:crispEdges;"/>
  <rect x="123.58620689655172" y="79.44827586206897" width="8.827586206896552" height="8.827586206896552" style="fill:#020617;shape-rendering:crispEdges;"/>
  <rect x="132.41379310344828" y="79.44827586206897" width="8.827586206896552" height="8.827586206896552" style="fill:#020617;shape-rendering:crispEdges;"/>
  <rect x="158.89655172413794" y="79.44827586206897" width="8.827586206896552" height="8.827586206896552" style="fill:#020617;shape-rendering:crispEdges;"/>
  <rect x="194.20689655172413" y="79.44827586206897" width="8.827586206896552" height="8.827586206896552" style="fill:#020617;shape-rendering:crispEdges;"/>
  <rect x="203.0344827586207" y="79.44827586206897" width="8.827586206896552" height="8.827586206896552" style="fill:#020617;shape-rendering:crispEdges;"/>
  <rect x="211.86206896551724" y="79.44827586206897" width="8.827586206896552" height="8.827586206896552" style="fill:#020617;shape-rendering:crispEdges;"/>
  <rect x="220.68965517241378" y="79.44827586206897" width="8.827586206896552" height="8.827586206896552" style="fill:#020617;shape-rendering:crispEdges;"/>
  <rect x="238.3448275862069" y="79.44827586206897" width="8.827586206896552" height="8.827586206896552" style="fill:#020617;shape-rendering:crispEdges;"/>
  <rect x="8.827586206896552" y="88.27586206896552" width="8.827586206896552" height="8.827586206896552" style="fill:#020617;shape-rendering:crispEdges;"/>
  <rect x="26.482758620689655" y="88.27586206896552" width="8.827586206896552" height="8.827586206896552" style="fill:#020617;shape-rendering:crispEdges;"/>
  <rect x="52.96551724137931" y="88.27586206896552" width="8.827586206896552" height="8.827586206896552" style="fill:#020617;shape-rendering:crispEdges;"/>
  <rect x="61.79310344827586" y="88.27586206896552" width="8.827586206896552" height="8.827586206896552" style="fill:#020617;shape-rendering:crispEdges;"/>
  <rect x="79.44827586206897" y="88.27586206896552" width="8.827586206896552" height="8.827586206896552" style="fill:#020617;shape-rendering:crispEdges;"/>
  <rect x="88.27586206896552" y="88.27586206896552" width="8.827586206896552" height="8.827586206896552" style="fill:#020617;shape-rendering:crispEdges;"/>
  <rect x="97.10344827586206" y="88.27586206896552" width="8.827586206896552" height="8.827586206896552" style="fill:#020617;shape-rendering:crispEdges;"/>
  <rect x="105.93103448275862" y="88.27586206896552" width="8.827586206896552" height="8.827586206896552" style="fill:#020617;shape-rendering:crispEdges;"/>
  <rect x="114.75862068965517" y="88.27586206896552" width="8.827586206896552" height="8.827586206896552" style="fill:#020617;shape-rendering:crispEdges;"/>
  <rect x="132.41379310344828" y="88.27586206896552" width="8.827586206896552" height="8.827586206896552" style="fill:#020617;shape-rendering:crispEdges;"/>
  <rect x="141.24137931034483" y="88.27586206896552" width="8.827586206896552" height="8.827586206896552" style="fill:#020617;shape-rendering:crispEdges;"/>
  <rect x="167.72413793103448" y="88.27586206896552" width="8.827586206896552" height="8.827586206896552" style="fill:#020617;shape-rendering:crispEdges;"/>
  <rect x="194.20689655172413" y="88.27586206896552" width="8.827586206896552" height="8.827586206896552" style="fill:#020617;shape-rendering:crispEdges;"/>
  <rect x="211.86206896551724" y="88.27586206896552" width="8.827586206896552" height="8.827586206896552" style="fill:#020617;shape-rendering:crispEdges;"/>
  <rect x="238.3448275862069" y="88.27586206896552" width="8.827586206896552" height="8.827586206896552" style="fill:#020617;shape-rendering:crispEdges;"/>
  <rect x="247.17241379310343" y="88.27586206896552" width="8.827586206896552" height="8.827586206896552" style="fill:#020617;shape-rendering:crispEdges;"/>
  <rect x="0" y="97.10344827586206" width="8.827586206896552" height="8.827586206896552" style="fill:#020617;shape-rendering:crispEdges;"/>
  <rect x="8.827586206896552" y="97.10344827586206" width="8.827586206896552" height="8.827586206896552" style="fill:#020617;shape-rendering:crispEdges;"/>
  <rect x="17.655172413793103" y="97.10344827586206" width="8.827586206896552" height="8.827586206896552" style="fill:#020617;shape-rendering:crispEdges;"/>
  <rect x="35.310344827586206" y="97.10344827586206" width="8.827586206896552" height="8.827586206896552" style="fill:#020617;shape-rendering:crispEdges;"/>
  <rect x="44.13793103448276" y="97.10344827586206" width="8.827586206896552" height="8.827586206896552" style="fill:#020617;shape-rendering:crispEdges;"/>
  <rect x="70.62068965517241" y="97.10344827586206" width="8.827586206896552" height="8.827586206896552" style="fill:#020617;shape-rendering:crispEdges;"/>
  <rect x="79.44827586206897" y="97.10344827586206" width="8.827586206896552" height="8.827586206896552" style="fill:#020617;shape-rendering:crispEdges;"/>
  <rect x="97.10344827586206" y="97.10344827586206" width="8.827586206896552" height="8.827586206896552" style="fill:#020617;shape-rendering:crispEdges;"/>
  <rect x="141.24137931034483" y="97.10344827586206" width="8.827586206896552" height="8.827586206896552" style="fill:#020617;shape-rendering:crispEdges;"/>
  <rect x="167.72413793103448" y="97.10344827586206" width="8.827586206896552" height="8.827586206896552" style="fill:#020617;shape-rendering:crispEdges;"/>
  <rect x="203.0344827586207" y="97.10344827586206" width="8.827586206896552" height="8.827586206896552" style="fill:#020617;shape-rendering:crispEdges;"/>
  <rect x="220.68965517241378" y="97.10344827586206" width="8.827586206896552" height="8.827586206896552" style="fill:#020617;shape-rendering:crispEdges;"/>
  <rect x="238.3448275862069" y="97.10344827586206" width="8.827586206896552" height="8.827586206896552" style="fill:#020617;shape-rendering:crispEdges;"/>
  <rect x="247.17241379310343" y="97.10344827586206" width="8.827586206896552" height="8.827586206896552" style="fill:#020617;shape-rendering:crispEdges;"/>
  <rect x="17.655172413793103" y="105.93103448275862" width="8.827586206896552" height="8.827586206896552" style="fill:#020617;shape-rendering:crispEdges;"/>
  <rect x="26.482758620689655" y="105.93103448275862" width="8.827586206896552" height="8.827586206896552" style="fill:#020617;shape-rendering:crispEdges;"/>
  <rect x="35.310344827586206" y="105.93103448275862" width="8.827586206896552" height="8.827586206896552" style="fill:#020617;shape-rendering:crispEdges;"/>
  <rect x="44.13793103448276" y="105.93103448275862" width="8.827586206896552" height="8.827586206896552" style="fill:#020617;shape-rendering:crispEdges;"/>
  <rect x="52.96551724137931" y="105.93103448275862" width="8.827586206896552" height="8.827586206896552" style="fill:#020617;shape-rendering:crispEdges;"/>
  <rect x="70.62068965517241" y="105.93103448275862" width="8.827586206896552" height="8.827586206896552" style="fill:#020617;shape-rendering:crispEdges;"/>
  <rect x="105.93103448275862" y="105.93103448275862" width="8.827586206896552" height="8.827586206896552" style="fill:#020617;shape-rendering:crispEdges;"/>
  <rect x="114.75862068965517" y="105.93103448275862" width="8.827586206896552" height="8.827586206896552" style="fill:#020617;shape-rendering:crispEdges;"/>
  <rect x="132.41379310344828" y="105.93103448275862" width="8.827586206896552" height="8.827586206896552" style="fill:#020617;shape-rendering:crispEdges;"/>
  <rect x="176.55172413793105" y="105.93103448275862" width="8.827586206896552" height="8.827586206896552" style="fill:#020617;shape-rendering:crispEdges;"/>
  <rect x="238.3448275862069" y="105.93103448275862" width="8.827586206896552" height="8.827586206896552" style="fill:#020617;shape-rendering:crispEdges;"/>
  <rect x="0" y="114.75862068965517" width="8.827586206896552" height="8.827586206896552" style="fill:#020617;shape-rendering:crispEdges;"/>
  <rect x="17.655172413793103" y="114.75862068965517" width="8.827586206896552" height="8.827586206896552" style="fill:#020617;shape-rendering:crispEdges;"/>
  <rect x="35.310344827586206" y="114.75862068965517" width="8.827586206896552" height="8.827586206896552" style="fill:#020617;shape-rendering:crispEdges;"/>
  <rect x="44.13793103448276" y="114.75862068965517" width="8.827586206896552" height="8.827586206896552" style="fill:#020617;shape-rendering:crispEdges;"/>
  <rect x="61.79310344827586" y="114.75862068965517" width="8.827586206896552" height="8.827586206896552" style="fill:#020617;shape-rendering:crispEdges;"/>
  <rect x="123.58620689655172" y="114.75862068965517" width="8.827586206896552" height="8.827586206896552" style="fill:#020617;shape-rendering:crispEdges;"/>
  <rect x="132.41379310344828" y="114.75862068965517" width="8.827586206896552" height="8.827586206896552" style="fill:#020617;shape-rendering:crispEdges;"/>
  <rect x="150.06896551724137" y="114.75862068965517" width="8.827586206896552" height="8.827586206896552" style="fill:#020617;shape-rendering:crispEdges;"/>
  <rect x="158.89655172413794" y="114.75862068965517" width="8.827586206896552" height="8.827586206896552" style="fill:#020617;shape-rendering:crispEdges;"/>
  <rect x="176.55172413793105" y="114.75862068965517" width="8.827586206896552" height="8.827586206896552" style="fill:#020617;shape-rendering:crispEdges;"/>
  <rect x="211.86206896551724" y="114.75862068965517" width="8.827586206896552" height="8.827586206896552" style="fill:#020617;shape-rendering:crispEdges;"/>
  <rect x="220.68965517241378" y="114.75862068965517" width="8.827586206896552" height="8.827586206896552" style="fill:#020617;shape-rendering:crispEdges;"/>
  <rect x="229.51724137931035" y="114.75862068965517" width="8.827586206896552" height="8.827586206896552" style="fill:#020617;shape-rendering:crispEdges;"/>
  <rect x="238.3448275862069" y="114.75862068965517" width="8.827586206896552" height="8.827586206896552" style="fill:#020617;shape-rendering:crispEdges;"/>
  <rect x="247.17241379310343" y="114.75862068965517" width="8.827586206896552" height="8.827586206896552" style="fill:#020617;shape-rendering:crispEdges;"/>
  <rect x="17.655172413793103" y="123.58620689655172" width="8.827586206896552" height="8.827586206896552" style="fill:#020617;shape-rendering:crispEdges;"/>
  <rect x="26.482758620689655" y="123.58620689655172" width="8.827586206896552" height="8.827586206896552" style="fill:#020617;shape-rendering:crispEdges;"/>
  <rect x="52.96551724137931" y="123.58620689655172" width="8.827586206896552" height="8.827586206896552" style="fill:#020617;shape-rendering:crispEdges;"/>
  <rect x="70.62068965517241" y="123.58620689655172" width="8.827586206896552" height="8.827586206896552" style="fill:#020617;shape-rendering:crispEdges;"/>
  <rect x="114.75862068965517" y="123.58620689655172" width="8.827586206896552" height="8.827586206896552" style="fill:#020617;shape-rendering:crispEdges;"/>
  <rect x="123.58620689655172" y="123.58620689655172" width="8.827586206896552" height="8.827586206896552" style="fill:#020617;shape-rendering:crispEdges;"/>
  <rect x="167.72413793103448" y="123.58620689655172" width="8.827586206896552" height="8.827586206896552" style="fill:#020617;shape-rendering:crispEdges;"/>
  <rect x="185.3793103448276" y="123.58620689655172" width="8.827586206896552" height="8.827586206896552" style="fill:#020617;shape-rendering:crispEdges;"/>
  <rect x="194.20689655172413" y="123.58620689655172" width="8.827586206896552" height="8.827586206896552" style="fill:#020617;shape-rendering:crispEdges;"/>
  <rect x="203.0344827586207" y="123.58620689655172" width="8.827586206896552" height="8.827586206896552" style="fill:#020617;shape-rendering:crispEdges;"/>
  <rect x="238.3448275862069" y="123.58620689655172" width="8.827586206896552" height="8.827586206896552" style="fill:#020617;shape-rendering:crispEdges;"/>
  <rect x="247.17241379310343" y="123.58620689655172" width="8.827586206896552" height="8.827586206896552" style="fill:#020617;shape-rendering:crispEdges;"/>
  <rect x="0" y="132.41379310344828" width="8.827586206896552" height="8.827586206896552" style="fill:#020617;shape-rendering:crispEdges;"/>
  <rect x="8.827586206896552" y="132.41379310344828" width="8.827586206896552" height="8.827586206896552" style="fill:#020617;shape-rendering:crispEdges;"/>
  <rect x="44.13793103448276" y="132.41379310344828" width="8.827586206896552" height="8.827586206896552" style="fill:#020617;shape-rendering:crispEdges;"/>
  <rect x="61.79310344827586" y="132.41379310344828" width="8.827586206896552" height="8.827586206896552" style="fill:#020617;shape-rendering:crispEdges;"/>
  <rect x="70.62068965517241" y="132.41379310344828" width="8.827586206896552" height="8.827586206896552" style="fill:#020617;shape-rendering:crispEdges;"/>
  <rect x="79.44827586206897" y="132.41379310344828" width="8.827586206896552" height="8.827586206896552" style="fill:#020617;shape-rendering:crispEdges;"/>
  <rect x="88.27586206896552" y="132.41379310344828" width="8.827586206896552" height="8.827586206896552" style="fill:#020617;shape-rendering:crispEdges;"/>
  <rect x="123.58620689655172" y="132.41379310344828" width="8.827586206896552" height="8.827586206896552" style="fill:#020617;shape-rendering:crispEdges;"/>
  <rect x="141.24137931034483" y="132.41379310344828" width="8.827586206896552" height="8.827586206896552" style="fill:#020617;shape-rendering:crispEdges;"/>
  <rect x="167.72413793103448" y="132.41379310344828" width="8.827586206896552" height="8.827586206896552" style="fill:#020617;shape-rendering:crispEdges;"/>
  <rect x="176.55172413793105" y="132.41379310344828" width="8.827586206896552" height="8.827586206896552" style="fill:#020617;shape-rendering:crispEdges;"/>
  <rect x="185.3793103448276" y="132.41379310344828" width="8.827586206896552" height="8.827586206896552" style="fill:#020617;shape-rendering:crispEdges;"/>
  <rect x="194.20689655172413" y="132.41379310344828" width="8.827586206896552" height="8.827586206896552" style="fill:#020617;shape-rendering:crispEdges;"/>
  <rect x="220.68965517241378" y="132.41379310344828" width="8.827586206896552" height="8.827586206896552" style="fill:#020617;shape-rendering:crispEdges;"/>
  <rect x="238.3448275862069" y="132.41379310344828" width="8.827586206896552" height="8.827586206896552" style="fill:#020617;shape-rendering:crispEdges;"/>
  <rect x="8.827586206896552" y="141.24137931034483" width="8.827586206896552" height="8.827586206896552" style="fill:#020617;shape-rendering:crispEdges;"/>
  <rect x="26.482758620689655" y="141.24137931034483" width="8.827586206896552" height="8.827586206896552" style="fill:#020617;shape-rendering:crispEdges;"/>
  <rect x="52.96551724137931" y="141.24137931034483" width="8.827586206896552" height="8.827586206896552" style="fill:#020617;shape-rendering:crispEdges;"/>
  <rect x="79.44827586206897" y="141.24137931034483" width="8.827586206896552" height="8.827586206896552" style="fill:#020617;shape-rendering:crispEdges;"/>
  <rect x="88.27586206896552" y="141.24137931034483" width="8.827586206896552" height="8.827586206896552" style="fill:#020617;shape-rendering:crispEdges;"/>
  <rect x="105.93103448275862" y="141.24137931034483" width="8.827586206896552" height="8.827586206896552" style="fill:#020617;shape-rendering:crispEdges;"/>
  <rect x="132.41379310344828" y="141.24137931034483" width="8.827586206896552" height="8.827586206896552" style="fill:#020617;shape-rendering:crispEdges;"/>
  <rect x="150.06896551724137" y="141.24137931034483" width="8.827586206896552" height="8.827586206896552" style="fill:#020617;shape-rendering:crispEdges;"/>
  <rect x="167.72413793103448" y="141.24137931034483" width="8.827586206896552" height="8.827586206896552" style="fill:#020617;shape-rendering:crispEdges;"/>
  <rect x="194.20689655172413" y="141.24137931034483" width="8.827586206896552" height="8.827586206896552" style="fill:#020617;shape-rendering:crispEdges;"/>
  <rect x="211.86206896551724" y="141.24137931034483" width="8.827586206896552" height="8.827586206896552" style="fill:#020617;shape-rendering:crispEdges;"/>
  <rect x="238.3448275862069" y="141.24137931034483" width="8.827586206896552" height="8.827586206896552" style="fill:#020617;shape-rendering:crispEdges;"/>
  <rect x="26.482758620689655" y="150.06896551724137" width="8.827586206896552" height="8.827586206896552" style="fill:#020617;shape-rendering:crispEdges;"/>
  <rect x="35.310344827586206" y="150.06896551724137" width="8.827586206896552" height="8.827586206896552" style="fill:#020617;shape-rendering:crispEdges;"/>
  <rect x="61.79310344827586" y="150.06896551724137" width="8.827586206896552" height="8.827586206896552" style="fill:#020617;shape-rendering:crispEdges;"/>
  <rect x="79.44827586206897" y="150.06896551724137" width="8.827586206896552" height="8.827586206896552" style="fill:#020617;shape-rendering:crispEdges;"/>
  <rect x="97.10344827586206" y="150.06896551724137" width="8.827586206896552" height="8.827586206896552" style="fill:#020617;shape-rendering:crispEdges;"/>
  <rect x="105.93103448275862" y="150.06896551724137" width="8.827586206896552" height="8.827586206896552" style="fill:#020617;shape-rendering:crispEdges;"/>
  <rect x="114.75862068965517" y="150.06896551724137" width="8.827586206896552" height="8.827586206896552" style="fill:#020617;shape-rendering:crispEdges;"/>
  <rect x="123.58620689655172" y="150.06896551724137" width="8.827586206896552" height="8.827586206896552" style="fill:#020617;shape-rendering:crispEdges;"/>
  <rect x="141.24137931034483" y="150.06896551724137" width="8.827586206896552" height="8.827586206896552" style="fill:#020617;shape-rendering:crispEdges;"/>
  <rect x="150.06896551724137" y="150.06896551724137" width="8.827586206896552" height="8.827586206896552" style="fill:#020617;shape-rendering:crispEdges;"/>
  <rect x="167.72413793103448" y="150.06896551724137" width="8.827586206896552" height="8.827586206896552" style="fill:#020617;shape-rendering:crispEdges;"/>
  <rect x="176.55172413793105" y="150.06896551724137" width="8.827586206896552" height="8.827586206896552" style="fill:#020617;shape-rendering:crispEdges;"/>
  <rect x="185.3793103448276" y="150.06896551724137" width="8.827586206896552" height="8.827586206896552" style="fill:#020617;shape-rendering:crispEdges;"/>
  <rect x="194.20689655172413" y="150.06896551724137" width="8.827586206896552" height="8.827586206896552" style="fill:#020617;shape-rendering:crispEdges;"/>
  <rect x="203.0344827586207" y="150.06896551724137" width="8.827586206896552" height="8.827586206896552" style="fill:#020617;shape-rendering:crispEdges;"/>
  <rect x="211.86206896551724" y="150.06896551724137" width="8.827586206896552" height="8.827586206896552" style="fill:#020617;shape-rendering:crispEdges;"/>
  <rect x="220.68965517241378" y="150.06896551724137" width="8.827586206896552" height="8.827586206896552" style="fill:#020617;shape-rendering:crispEdges;"/>
  <rect x="229.51724137931035" y="150.06896551724137" width="8.827586206896552" height="8.827586206896552" style="fill:#020617;shape-rendering:crispEdges;"/>
  <rect x="247.17241379310343" y="150.06896551724137" width="8.827586206896552" height="8.827586206896552" style="fill:#020617;shape-rendering:crispEdges;"/>
  <rect x="0" y="158.89655172413794" width="8.827586206896552" height="8.827586206896552" style="fill:#020617;shape-rendering:crispEdges;"/>
  <rect x="52.96551724137931" y="158.89655172413794" width="8.827586206896552" height="8.827586206896552" style="fill:#020617;shape-rendering:crispEdges;"/>
  <rect x="61.79310344827586" y="158.89655172413794" width="8.827586206896552" height="8.827586206896552" style="fill:#020617;shape-rendering:crispEdges;"/>
  <rect x="97.10344827586206" y="158.89655172413794" width="8.827586206896552" height="8.827586206896552" style="fill:#020617;shape-rendering:crispEdges;"/>
  <rect x="114.75862068965517" y="158.89655172413794" width="8.827586206896552" height="8.827586206896552" style="fill:#020617;shape-rendering:crispEdges;"/>
  <rect x="132.41379310344828" y="158.89655172413794" width="8.827586206896552" height="8.827586206896552" style="fill:#020617;shape-rendering:crispEdges;"/>
  <rect x="141.24137931034483" y="158.89655172413794" width="8.827586206896552" height="8.827586206896552" style="fill:#020617;shape-rendering:crispEdges;"/>
  <rect x="150.06896551724137" y="158.89655172413794" width="8.827586206896552" height="8.827586206896552" style="fill:#020617;shape-rendering:crispEdges;"/>
  <rect x="176.55172413793105" y="158.89655172413794" width="8.827586206896552" height="8.827586206896552" style="fill:#020617;shape-rendering:crispEdges;"/>
  <rect x="185.3793103448276" y="158.89655172413794" width="8.827586206896552" height="8.827586206896552" style="fill:#020617;shape-rendering:crispEdges;"/>
  <rect x="194.20689655172413" y="158.89655172413794" width="8.827586206896552" height="8.827586206896552" style="fill:#020617;shape-rendering:crispEdges;"/>
  <rect x="203.0344827586207" y="158.89655172413794" width="8.827586206896552" height="8.827586206896552" style="fill:#020617;shape-rendering:crispEdges;"/>
  <rect x="247.17241379310343" y="158.89655172413794" width="8.827586206896552" height="8.827586206896552" style="fill:#020617;shape-rendering:crispEdges;"/>
  <rect x="8.827586206896552" y="167.72413793103448" width="8.827586206896552" height="8.827586206896552" style="fill:#020617;shape-rendering:crispEdges;"/>
  <rect x="26.482758620689655" y="167.72413793103448" width="8.827586206896552" height="8.827586206896552" style="fill:#020617;shape-rendering:crispEdges;"/>
  <rect x="35.310344827586206" y="167.72413793103448" width="8.827586206896552" height="8.827586206896552" style="fill:#020617;shape-rendering:crispEdges;"/>
  <rect x="44.13793103448276" y="167.72413793103448" width="8.827586206896552" height="8.827586206896552" style="fill:#020617;shape-rendering:crispEdges;"/>
  <rect x="70.62068965517241" y="167.72413793103448" width="8.827586206896552" height="8.827586206896552" style="fill:#020617;shape-rendering:crispEdges;"/>
  <rect x="97.10344827586206" y="167.72413793103448" width="8.827586206896552" height="8.827586206896552" style="fill:#020617;shape-rendering:crispEdges;"/>
  <rect x="114.75862068965517" y="167.72413793103448" width="8.827586206896552" height="8.827586206896552" style="fill:#020617;shape-rendering:crispEdges;"/>
  <rect x="123.58620689655172" y="167.72413793103448" width="8.827586206896552" height="8.827586206896552" style="fill:#020617;shape-rendering:crispEdges;"/>
  <rect x="150.06896551724137" y="167.72413793103448" width="8.827586206896552" height="8.827586206896552" style="fill:#020617;shape-rendering:crispEdges;"/>
  <rect x="158.89655172413794" y="167.72413793103448" width="8.827586206896552" height="8.827586206896552" style="fill:#020617;shape-rendering:crispEdges;"/>
  <rect x="167.72413793103448" y="167.72413793103448" width="8.827586206896552" height="8.827586206896552" style="fill:#020617;shape-rendering:crispEdges;"/>
  <rect x="185.3793103448276" y="167.72413793103448" width="8.827586206896552" height="8.827586206896552" style="fill:#020617;shape-rendering:crispEdges;"/>
  <rect x="194.20689655172413" y="167.72413793103448" width="8.827586206896552" height="8.827586206896552" style="fill:#020617;shape-rendering:crispEdges;"/>
  <rect x="220.68965517241378" y="167.72413793103448" width="8.827586206896552" height="8.827586206896552" style="fill:#020617;shape-rendering:crispEdges;"/>
  <rect x="0" y="176.55172413793105" width="8.827586206896552" height="8.827586206896552" style="fill:#020617;shape-rendering:crispEdges;"/>
  <rect x="8.827586206896552" y="176.55172413793105" width="8.827586206896552" height="8.827586206896552" style="fill:#020617;shape-rendering:crispEdges;"/>
  <rect x="17.655172413793103" y="176.55172413793105" width="8.827586206896552" height="8.827586206896552" style="fill:#020617;shape-rendering:crispEdges;"/>
  <rect x="44.13793103448276" y="176.55172413793105" width="8.827586206896552" height="8.827586206896552" style="fill:#020617;shape-rendering:crispEdges;"/>
  <rect x="52.96551724137931" y="176.55172413793105" width="8.827586206896552" height="8.827586206896552" style="fill:#020617;shape-rendering:crispEdges;"/>
  <rect x="70.62068965517241" y="176.55172413793105" width="8.827586206896552" height="8.827586206896552" style="fill:#020617;shape-rendering:crispEdges;"/>
  <rect x="105.93103448275862" y="176.55172413793105" width="8.827586206896552" height="8.827586206896552" style="fill:#020617;shape-rendering:crispEdges;"/>
  <rect x="123.58620689655172" y="176.55172413793105" width="8.827586206896552" height="8.827586206896552" style="fill:#020617;shape-rendering:crispEdges;"/>
  <rect x="141.24137931034483" y="176.55172413793105" width="8.827586206896552" height="8.827586206896552" style="fill:#020617;shape-rendering:crispEdges;"/>
  <rect x="150.06896551724137" y="176.55172413793105" width="8.827586206896552" height="8.827586206896552" style="fill:#020617;shape-rendering:crispEdges;"/>
  <rect x="176.55172413793105" y="176.55172413793105" width="8.827586206896552" height="8.827586206896552" style="fill:#020617;shape-rendering:crispEdges;"/>
  <rect x="185.3793103448276" y="176.55172413793105" width="8.827586206896552" height="8.827586206896552" style="fill:#020617;shape-rendering:crispEdges;"/>
  <rect x="194.20689655172413" y="176.55172413793105" width="8.827586206896552" height="8.827586206896552" style="fill:#020617;shape-rendering:crispEdges;"/>
  <rect x="203.0344827586207" y="176.55172413793105" width="8.827586206896552" height="8.827586206896552" style="fill:#020617;shape-rendering:crispEdges;"/>
  <rect x="211.86206896551724" y="176.55172413793105" width="8.827586206896552" height="8.827586206896552" style="fill:#020617;shape-rendering:crispEdges;"/>
  <rect x="229.51724137931035" y="176.55172413793105" width="8.827586206896552" height="8.827586206896552" style="fill:#020617;shape-rendering:crispEdges;"/>
  <rect x="247.17241379310343" y="176.55172413793105" width="8.827586206896552" height="8.827586206896552" style="fill:#020617;shape-rendering:crispEdges;"/>
  <rect x="70.62068965517241" y="185.3793103448276" width="8.827586206896552" height="8.827586206896552" style="fill:#020617;shape-rendering:crispEdges;"/>
  <rect x="105.93103448275862" y="185.3793103448276" width="8.827586206896552" height="8.827586206896552" style="fill:#020617;shape-rendering:crispEdges;"/>
  <rect x="132.41379310344828" y="185.3793103448276" width="8.827586206896552" height="8.827586206896552" style="fill:#020617;shape-rendering:crispEdges;"/>
  <rect x="141.24137931034483" y="185.3793103448276" width="8.827586206896552" height="8.827586206896552" style="fill:#020617;shape-rendering:crispEdges;"/>
  <rect x="150.06896551724137" y="185.3793103448276" width="8.827586206896552" height="8.827586206896552" style="fill:#020617;shape-rendering:crispEdges;"/>
  <rect x="167.72413793103448" y="185.3793103448276" width="8.827586206896552" height="8.827586206896552" style="fill:#020617;shape-rendering:crispEdges;"/>
  <rect x="176.55172413793105" y="185.3793103448276" width="8.827586206896552" height="8.827586206896552" style="fill:#020617;shape-rendering:crispEdges;"/>
  <rect x="211.86206896551724" y="185.3793103448276" width="8.827586206896552" height="8.827586206896552" style="fill:#020617;shape-rendering:crispEdges;"/>
  <rect x="247.17241379310343" y="185.3793103448276" width="8.827586206896552" height="8.827586206896552" style="fill:#020617;shape-rendering:crispEdges;"/>
  <rect x="0" y="194.20689655172413" width="8.827586206896552" height="8.827586206896552" style="fill:#020617;shape-rendering:crispEdges;"/>
  <rect x="8.827586206896552" y="194.20689655172413" width="8.827586206896552" height="8.827586206896552" style="fill:#020617;shape-rendering:crispEdges;"/>
  <rect x="17.655172413793103" y="194.20689655172413" width="8.827586206896552" height="8.827586206896552" style="fill:#020617;shape-rendering:crispEdges;"/>
  <rect x="26.482758620689655" y="194.20689655172413" width="8.827586206896552" height="8.827586206896552" style="fill:#020617;shape-rendering:crispEdges;"/>
  <rect x="35.310344827586206" y="194.20689655172413" width="8.827586206896552" height="8.827586206896552" style="fill:#020617;shape-rendering:crispEdges;"/>
  <rect x="44.13793103448276" y="194.20689655172413" width="8.827586206896552" height="8.827586206896552" style="fill:#020617;shape-rendering:crispEdges;"/>
  <rect x="52.96551724137931" y="194.20689655172413" width="8.827586206896552" height="8.827586206896552" style="fill:#020617;shape-rendering:crispEdges;"/>
  <rect x="70.62068965517241" y="194.20689655172413" width="8.827586206896552" height="8.827586206896552" style="fill:#020617;shape-rendering:crispEdges;"/>
  <rect x="79.44827586206897" y="194.20689655172413" width="8.827586206896552" height="8.827586206896552" style="fill:#020617;shape-rendering:crispEdges;"/>
  <rect x="88.27586206896552" y="194.20689655172413" width="8.827586206896552" height="8.827586206896552" style="fill:#020617;shape-rendering:crispEdges;"/>
  <rect x="114.75862068965517" y="194.20689655172413" width="8.827586206896552" height="8.827586206896552" style="fill:#020617;shape-rendering:crispEdges;"/>
  <rect x="123.58620689655172" y="194.20689655172413" width="8.827586206896552" height="8.827586206896552" style="fill:#020617;shape-rendering:crispEdges;"/>
  <rect x="132.41379310344828" y="194.20689655172413" width="8.827586206896552" height="8.827586206896552" style="fill:#020617;shape-rendering:crispEdges;"/>
  <rect x="158.89655172413794" y="194.20689655172413" width="8.827586206896552" height="8.827586206896552" style="fill:#020617;shape-rendering:crispEdges;"/>
  <rect x="167.72413793103448" y="194.20689655172413" width="8.827586206896552" height="8.827586206896552" style="fill:#020617;shape-rendering:crispEdges;"/>
  <rect x="176.55172413793105" y="194.20689655172413" width="8.827586206896552" height="8.827586206896552" style="fill:#020617;shape-rendering:crispEdges;"/>
  <rect x="194.20689655172413" y="194.20689655172413" width="8.827586206896552" height="8.827586206896552" style="fill:#020617;shape-rendering:crispEdges;"/>
  <rect x="211.86206896551724" y="194.20689655172413" width="8.827586206896552" height="8.827586206896552" style="fill:#020617;shape-rendering:crispEdges;"/>
  <rect x="0" y="203.0344827586207" width="8.827586206896552" height="8.827586206896552" style="fill:#020617;shape-rendering:crispEdges;"/>
  <rect x="52.96551724137931" y="203.0344827586207" width="8.827586206896552" height="8.827586206896552" style="fill:#020617;shape-rendering:crispEdges;"/>
  <rect x="79.44827586206897" y="203.0344827586207" width="8.827586206896552" height="8.827586206896552" style="fill:#020617;shape-rendering:crispEdges;"/>
  <rect x="88.27586206896552" y="203.0344827586207" width="8.827586206896552" height="8.827586206896552" style="fill:#020617;shape-rendering:crispEdges;"/>
  <rect x="97.10344827586206" y="203.0344827586207" width="8.827586206896552" height="8.827586206896552" style="fill:#020617;shape-rendering:crispEdges;"/>
  <rect x="105.93103448275862" y="203.0344827586207" width="8.827586206896552" height="8.827586206896552" style="fill:#020617;shape-rendering:crispEdges;"/>
  <rect x="114.75862068965517" y="203.0344827586207" width="8.827586206896552" height="8.827586206896552" style="fill:#020617;shape-rendering:crispEdges;"/>
  <rect x="123.58620689655172" y="203.0344827586207" width="8.827586206896552" height="8.827586206896552" style="fill:#020617;shape-rendering:crispEdges;"/>
  <rect x="141.24137931034483" y="203.0344827586207" width="8.827586206896552" height="8.827586206896552" style="fill:#020617;shape-rendering:crispEdges;"/>
  <rect x="167.72413793103448" y="203.0344827586207" width="8.827586206896552" height="8.827586206896552" style="fill:#020617;shape-rendering:crispEdges;"/>
  <rect x="176.55172413793105" y="203.0344827586207" width="8.827586206896552" height="8.827586206896552" style="fill:#020617;shape-rendering:crispEdges;"/>
  <rect x="211.86206896551724" y="203.0344827586207" width="8.827586206896552" height="8.827586206896552" style="fill:#020617;shape-rendering:crispEdges;"/>
  <rect x="229.51724137931035" y="203.0344827586207" width="8.827586206896552" height="8.827586206896552" style="fill:#020617;shape-rendering:crispEdges;"/>
  <rect x="247.17241379310343" y="203.0344827586207" width="8.827586206896552" height="8.827586206896552" style="fill:#020617;shape-rendering:crispEdges;"/>
  <rect x="0" y="211.86206896551724" width="8.827586206896552" height="8.827586206896552" style="fill:#020617;shape-rendering:crispEdges;"/>
  <rect x="17.655172413793103" y="211.86206896551724" width="8.827586206896552" height="8.827586206896552" style="fill:#020617;shape-rendering:crispEdges;"/>
  <rect x="26.482758620689655" y="211.86206896551724" width="8.827586206896552" height="8.827586206896552" style="fill:#020617;shape-rendering:crispEdges;"/>
  <rect x="35.310344827586206" y="211.86206896551724" width="8.827586206896552" height="8.827586206896552" style="fill:#020617;shape-rendering:crispEdges;"/>
  <rect x="52.96551724137931" y="211.86206896551724" width="8.827586206896552" height="8.827586206896552" style="fill:#020617;shape-rendering:crispEdges;"/>
  <rect x="70.62068965517241" y="211.86206896551724" width="8.827586206896552" height="8.827586206896552" style="fill:#020617;shape-rendering:crispEdges;"/>
  <rect x="79.44827586206897" y="211.86206896551724" width="8.827586206896552" height="8.827586206896552" style="fill:#020617;shape-rendering:crispEdges;"/>
  <rect x="88.27586206896552" y="211.86206896551724" width="8.827586206896552" height="8.827586206896552" style="fill:#020617;shape-rendering:crispEdges;"/>
  <rect x="97.10344827586206" y="211.86206896551724" width="8.827586206896552" height="8.827586206896552" style="fill:#020617;shape-rendering:crispEdges;"/>
  <rect x="123.58620689655172" y="211.86206896551724" width="8.827586206896552" height="8.827586206896552" style="fill:#020617;shape-rendering:crispEdges;"/>
  <rect x="132.41379310344828" y="211.86206896551724" width="8.827586206896552" height="8.827586206896552" style="fill:#020617;shape-rendering:crispEdges;"/>
  <rect x="141.24137931034483" y="211.86206896551724" width="8.827586206896552" height="8.827586206896552" style="fill:#020617;shape-rendering:crispEdges;"/>
  <rect x="158.89655172413794" y="211.86206896551724" width="8.827586206896552" height="8.827586206896552" style="fill:#020617;shape-rendering:crispEdges;"/>
  <rect x="176.55172413793105" y="211.86206896551724" width="8.827586206896552" height="8.827586206896552" style="fill:#020617;shape-rendering:crispEdges;"/>
  <rect x="185.3793103448276" y="211.86206896551724" width="8.827586206896552" height="8.827586206896552" style="fill:#020617;shape-rendering:crispEdges;"/>
  <rect x="194.20689655172413" y="211.86206896551724" width="8.827586206896552" height="8.827586206896552" style="fill:#020617;shape-rendering:crispEdges;"/>
  <rect x="203.0344827586207" y="211.86206896551724" width="8.827586206896552" height="8.827586206896552" style="fill:#020617;shape-rendering:crispEdges;"/>
  <rect x="211.86206896551724" y="211.86206896551724" width="8.827586206896552" height="8.827586206896552" style="fill:#020617;shape-rendering:crispEdges;"/>
  <rect x="220.68965517241378" y="211.86206896551724" width="8.827586206896552" height="8.827586206896552" style="fill:#020617;shape-rendering:crispEdges;"/>
  <rect x="238.3448275862069" y="211.86206896551724" width="8.827586206896552" height="8.827586206896552" style="fill:#020617;shape-rendering:crispEdges;"/>
  <rect x="0" y="220.68965517241378" width="8.827586206896552" height="8.827586206896552" style="fill:#020617;shape-rendering:crispEdges;"/>
  <rect x="17.655172413793103" y="220.68965517241378" width="8.827586206896552" height="8.827586206896552" style="fill:#020617;shape-rendering:crispEdges;"/>
  <rect x="26.482758620689655" y="220.68965517241378" width="8.827586206896552" height="8.827586206896552" style="fill:#020617;shape-rendering:crispEdges;"/>
  <rect x="35.310344827586206" y="220.68965517241378" width="8.827586206896552" height="8.827586206896552" style="fill:#020617;shape-rendering:crispEdges;"/>
  <rect x="52.96551724137931" y="220.68965517241378" width="8.827586206896552" height="8.827586206896552" style="fill:#020617;shape-rendering:crispEdges;"/>
  <rect x="79.44827586206897" y="220.68965517241378" width="8.827586206896552" height="8.827586206896552" style="fill:#020617;shape-rendering:crispEdges;"/>
  <rect x="88.27586206896552" y="220.68965517241378" width="8.827586206896552" height="8.827586206896552" style="fill:#020617;shape-rendering:crispEdges;"/>
  <rect x="114.75862068965517" y="220.68965517241378" width="8.827586206896552" height="8.827586206896552" style="fill:#020617;shape-rendering:crispEdges;"/>
  <rect x="123.58620689655172" y="220.68965517241378" width="8.827586206896552" height="8.827586206896552" style="fill:#020617;shape-rendering:crispEdges;"/>
  <rect x="132.41379310344828" y="220.68965517241378" width="8.827586206896552" height="8.827586206896552" style="fill:#020617;shape-rendering:crispEdges;"/>
  <rect x="141.24137931034483" y="220.68965517241378" width="8.827586206896552" height="8.827586206896552" style="fill:#020617;shape-rendering:crispEdges;"/>
  <rect x="150.06896551724137" y="220.68965517241378" width="8.827586206896552" height="8.827586206896552" style="fill:#020617;shape-rendering:crispEdges;"/>
  <rect x="158.89655172413794" y="220.68965517241378" width="8.827586206896552" height="8.827586206896552" style="fill:#020617;shape-rendering:crispEdges;"/>
  <rect x="167.72413793103448" y="220.68965517241378" width="8.827586206896552" height="8.827586206896552" style="fill:#020617;shape-rendering:crispEdges;"/>
  <rect x="185.3793103448276" y="220.68965517241378" width="8.827586206896552" height="8.827586206896552" style="fill:#020617;shape-rendering:crispEdges;"/>
  <rect x="211.86206896551724" y="220.68965517241378" width="8.827586206896552" height="8.827586206896552" style="fill:#020617;shape-rendering:crispEdges;"/>
  <rect x="229.51724137931035" y="220.68965517241378" width="8.827586206896552" height="8.827586206896552" style="fill:#020617;shape-rendering:crispEdges;"/>
  <rect x="238.3448275862069" y="220.68965517241378" width="8.827586206896552" height="8.827586206896552" style="fill:#020617;shape-rendering:crispEdges;"/>
  <rect x="247.17241379310343" y="220.68965517241378" width="8.827586206896552" height="8.827586206896552" style="fill:#020617;shape-rendering:crispEdges;"/>
  <rect x="0" y="229.51724137931035" width="8.827586206896552" height="8.827586206896552" style="fill:#020617;shape-rendering:crispEdges;"/>
  <rect x="17.655172413793103" y="229.51724137931035" width="8.827586206896552" height="8.827586206896552" style="fill:#020617;shape-rendering:crispEdges;"/>
  <rect x="26.482758620689655" y="229.51724137931035" width="8.827586206896552" height="8.827586206896552" style="fill:#020617;shape-rendering:crispEdges;"/>
  <rect x="35.310344827586206" y="229.51724137931035" width="8.827586206896552" height="8.827586206896552" style="fill:#020617;shape-rendering:crispEdges;"/>
  <rect x="52.96551724137931" y="229.51724137931035" width="8.827586206896552" height="8.827586206896552" style="fill:#020617;shape-rendering:crispEdges;"/>
  <rect x="88.27586206896552" y="229.51724137931035" width="8.827586206896552" height="8.827586206896552" style="fill:#020617;shape-rendering:crispEdges;"/>
  <rect x="105.93103448275862" y="229.51724137931035" width="8.827586206896552" height="8.827586206896552" style="fill:#020617;shape-rendering:crispEdges;"/>
  <rect x="114.75862068965517" y="229.51724137931035" width="8.827586206896552" height="8.827586206896552" style="fill:#020617;shape-rendering:crispEdges;"/>
  <rect x="167.72413793103448" y="229.51724137931035" width="8.827586206896552" height="8.827586206896552" style="fill:#020617;shape-rendering:crispEdges;"/>
  <rect x="176.55172413793105" y="229.51724137931035" width="8.827586206896552" height="8.827586206896552" style="fill:#020617;shape-rendering:crispEdges;"/>
  <rect x="194.20689655172413" y="229.51724137931035" width="8.827586206896552" height="8.827586206896552" style="fill:#020617;shape-rendering:crispEdges;"/>
  <rect x="211.86206896551724" y="229.51724137931035" width="8.827586206896552" height="8.827586206896552" style="fill:#020617;shape-rendering:crispEdges;"/>
  <rect x="220.68965517241378" y="229.51724137931035" width="8.827586206896552" height="8.827586206896552" style="fill:#020617;shape-rendering:crispEdges;"/>
  <rect x="0" y="238.3448275862069" width="8.827586206896552" height="8.827586206896552" style="fill:#020617;shape-rendering:crispEdges;"/>
  <rect x="52.96551724137931" y="238.3448275862069" width="8.827586206896552" height="8.827586206896552" style="fill:#020617;shape-rendering:crispEdges;"/>
  <rect x="88.27586206896552" y="238.3448275862069" width="8.827586206896552" height="8.827586206896552" style="fill:#020617;shape-rendering:crispEdges;"/>
  <rect x="105.93103448275862" y="238.3448275862069" width="8.827586206896552" height="8.827586206896552" style="fill:#020617;shape-rendering:crispEdges;"/>
  <rect x="123.58620689655172" y="238.3448275862069" width="8.827586206896552" height="8.827586206896552" style="fill:#020617;shape-rendering:crispEdges;"/>
  <rect x="132.41379310344828" y="238.3448275862069" width="8.827586206896552" height="8.827586206896552" style="fill:#020617;shape-rendering:crispEdges;"/>
  <rect x="141.24137931034483" y="238.3448275862069" width="8.827586206896552" height="8.827586206896552" style="fill:#020617;shape-rendering:crispEdges;"/>
  <rect x="176.55172413793105" y="238.3448275862069" width="8.827586206896552" height="8.827586206896552" style="fill:#020617;shape-rendering:crispEdges;"/>
  <rect x="194.20689655172413" y="238.3448275862069" width="8.827586206896552" height="8.827586206896552" style="fill:#020617;shape-rendering:crispEdges;"/>
  <rect x="203.0344827586207" y="238.3448275862069" width="8.827586206896552" height="8.827586206896552" style="fill:#020617;shape-rendering:crispEdges;"/>
  <rect x="211.86206896551724" y="238.3448275862069" width="8.827586206896552" height="8.827586206896552" style="fill:#020617;shape-rendering:crispEdges;"/>
  <rect x="220.68965517241378" y="238.3448275862069" width="8.827586206896552" height="8.827586206896552" style="fill:#020617;shape-rendering:crispEdges;"/>
  <rect x="238.3448275862069" y="238.3448275862069" width="8.827586206896552" height="8.827586206896552" style="fill:#020617;shape-rendering:crispEdges;"/>
  <rect x="247.17241379310343" y="238.3448275862069" width="8.827586206896552" height="8.827586206896552" style="fill:#020617;shape-rendering:crispEdges;"/>
  <rect x="0" y="247.17241379310343" width="8.827586206896552" height="8.827586206896552" style="fill:#020617;shape-rendering:crispEdges;"/>
  <rect x="8.827586206896552" y="247.17241379310343" width="8.827586206896552" height="8.827586206896552" style="fill:#020617;shape-rendering:crispEdges;"/>
  <rect x="17.655172413793103" y="247.17241379310343" width="8.827586206896552" height="8.827586206896552" style="fill:#020617;shape-rendering:crispEdges;"/>
  <rect x="26.482758620689655" y="247.17241379310343" width="8.827586206896552" height="8.827586206896552" style="fill:#020617;shape-rendering:crispEdges;"/>
  <rect x="35.310344827586206" y="247.17241379310343" width="8.827586206896552" height="8.827586206896552" style="fill:#020617;shape-rendering:crispEdges;"/>
  <rect x="44.13793103448276" y="247.17241379310343" width="8.827586206896552" height="8.827586206896552" style="fill:#020617;shape-rendering:crispEdges;"/>
  <rect x="52.96551724137931" y="247.17241379310343" width="8.827586206896552" height="8.827586206896552" style="fill:#020617;shape-rendering:crispEdges;"/>
  <rect x="79.44827586206897" y="247.17241379310343" width="8.827586206896552" height="8.827586206896552" style="fill:#020617;shape-rendering:crispEdges;"/>
  <rect x="97.10344827586206" y="247.17241379310343" width="8.827586206896552" height="8.827586206896552" style="fill:#020617;shape-rendering:crispEdges;"/>
  <rect x="105.93103448275862" y="247.17241379310343" width="8.827586206896552" height="8.827586206896552" style="fill:#020617;shape-rendering:crispEdges;"/>
  <rect x="114.75862068965517" y="247.17241379310343" width="8.827586206896552" height="8.827586206896552" style="fill:#020617;shape-rendering:crispEdges;"/>
  <rect x="123.58620689655172" y="247.17241379310343" width="8.827586206896552" height="8.827586206896552" style="fill:#020617;shape-rendering:crispEdges;"/>
  <rect x="176.55172413793105" y="247.17241379310343" width="8.827586206896552" height="8.827586206896552" style="fill:#020617;shape-rendering:crispEdges;"/>
  <rect x="185.3793103448276" y="247.17241379310343" width="8.827586206896552" height="8.827586206896552" style="fill:#020617;shape-rendering:crispEdges;"/>
  <rect x="203.0344827586207" y="247.17241379310343" width="8.827586206896552" height="8.827586206896552" style="fill:#020617;shape-rendering:crispEdges;"/>
  <rect x="211.86206896551724" y="247.17241379310343" width="8.827586206896552" height="8.827586206896552" style="fill:#020617;shape-rendering:crispEdges;"/>
  <rect x="229.51724137931035" y="247.17241379310343" width="8.827586206896552" height="8.827586206896552" style="fill:#020617;shape-rendering:crispEdges;"/>
</svg>