<svg xmlns="http://www.w3.org/2000/svg" width="900" height="620" viewBox="0 0 900 620">
  <defs>
    <linearGradient id="panel" x1="0" y1="0" x2="1" y2="1">
      <stop offset="0%" stop-color="#111827"/>
      <stop offset="100%" stop-color="#060914"/>
    </linearGradient>
    <linearGradient id="accent" x1="0" y1="0" x2="1" y2="0">
      <stop offset="0%" stop-color="#f43f5e"/>
      <stop offset="100%" stop-color="#f59e0b"/>
    </linearGradient>
    <linearGradient id="glow" x1="0" y1="0" x2="1" y2="1">
      <stop offset="0%" stop-color="#f43f5e" stop-opacity="0.42"/>
      <stop offset="55%" stop-color="#7c3aed" stop-opacity="0.14"/>
      <stop offset="100%" stop-color="#22c55e" stop-opacity="0.20"/>
    </linearGradient>
    <filter id="shadow" x="-20%" y="-20%" width="140%" height="140%">
      <feDropShadow dx="0" dy="18" stdDeviation="18" flood-color="#0b1220" flood-opacity="0.30"/>
    </filter>
  </defs>

  <rect width="900" height="620" fill="#f8fafc"/>
  <g filter="url(#shadow)">
    <rect x="42" y="42" width="816" height="536" rx="28" fill="url(#panel)"/>
    <rect x="42" y="42" width="816" height="536" rx="28" fill="url(#glow)"/>
    <rect x="42" y="42" width="816" height="536" rx="28" fill="none" stroke="#263243" stroke-width="2"/>
  </g>

  <rect x="42" y="42" width="816" height="58" rx="28" fill="#171d2a"/>
  <circle cx="82" cy="72" r="7" fill="#f43f5e"/>
  <circle cx="107" cy="72" r="7" fill="#f59e0b"/>
  <circle cx="132" cy="72" r="7" fill="#22c55e"/>
  <rect x="188" y="58" width="500" height="28" rx="14" fill="#0d1320" stroke="#2a3546"/>
  <text x="438" y="77" text-anchor="middle" font-family="Inter, Arial, sans-serif" font-size="15" fill="#94a3b8">qubite.local/tournaments</text>

  <g transform="translate(82 130)">
    <text x="0" y="0" font-family="Space Grotesk, Inter, Arial, sans-serif" font-size="38" font-weight="600" fill="#f8fafc">Турниры</text>
    <text x="0" y="36" font-family="Inter, Arial, sans-serif" font-size="16" fill="#94a3b8">Основной сценарий: выбрать турнир, решить задания и увидеть результат.</text>

    <g transform="translate(0 74)">
      <rect x="0" y="0" width="72" height="28" rx="14" fill="url(#accent)"/>
      <text x="36" y="19" text-anchor="middle" font-family="Inter, Arial, sans-serif" font-size="13" font-weight="700" fill="#ffffff">Все</text>
      <rect x="86" y="0" width="112" height="28" rx="14" fill="#20283a"/>
      <text x="142" y="19" text-anchor="middle" font-family="Inter, Arial, sans-serif" font-size="13" fill="#cbd5e1">Алгоритмы</text>
      <rect x="212" y="0" width="104" height="28" rx="14" fill="#20283a"/>
      <text x="264" y="19" text-anchor="middle" font-family="Inter, Arial, sans-serif" font-size="13" fill="#cbd5e1">Командные</text>
    </g>

    <g transform="translate(0 132)">
      <rect x="0" y="0" width="690" height="88" rx="18" fill="#111827" stroke="#fb7185" stroke-opacity="0.55"/>
      <rect x="0" y="0" width="690" height="3" rx="2" fill="url(#accent)"/>
      <rect x="24" y="21" width="82" height="22" rx="11" fill="#064e3b"/>
      <text x="65" y="36" text-anchor="middle" font-family="Inter, Arial, sans-serif" font-size="12" font-weight="700" fill="#6ee7b7">идет сейчас</text>
      <text x="24" y="64" font-family="Inter, Arial, sans-serif" font-size="21" font-weight="700" fill="#f8fafc">Весенний кубок Qubite 2026</text>
      <text x="545" y="57" font-family="Inter, Arial, sans-serif" font-size="14" fill="#94a3b8">25 задач</text>
      <rect x="615" y="33" width="50" height="32" rx="16" fill="url(#accent)"/>
    </g>

    <g transform="translate(0 238)">
      <rect x="0" y="0" width="690" height="88" rx="18" fill="#111827" stroke="#f59e0b" stroke-opacity="0.55"/>
      <rect x="0" y="0" width="690" height="3" rx="2" fill="url(#accent)"/>
      <rect x="24" y="21" width="82" height="22" rx="11" fill="#064e3b"/>
      <text x="65" y="36" text-anchor="middle" font-family="Inter, Arial, sans-serif" font-size="12" font-weight="700" fill="#6ee7b7">идет сейчас</text>
      <text x="24" y="64" font-family="Inter, Arial, sans-serif" font-size="21" font-weight="700" fill="#f8fafc">Марафон по алгоритмам</text>
      <text x="545" y="57" font-family="Inter, Arial, sans-serif" font-size="14" fill="#94a3b8">24 часа</text>
      <rect x="615" y="33" width="50" height="32" rx="16" fill="#20283a" stroke="#f59e0b"/>
    </g>

    <g transform="translate(0 358)">
      <rect x="0" y="0" width="208" height="72" rx="18" fill="#111827" stroke="#253043"/>
      <text x="24" y="30" font-family="Inter, Arial, sans-serif" font-size="15" fill="#94a3b8">Рейтинг</text>
      <text x="24" y="58" font-family="Inter, Arial, sans-serif" font-size="28" font-weight="800" fill="#f8fafc">1200</text>
      <rect x="240" y="0" width="208" height="72" rx="18" fill="#111827" stroke="#253043"/>
      <text x="264" y="30" font-family="Inter, Arial, sans-serif" font-size="15" fill="#94a3b8">Команда</text>
      <text x="264" y="58" font-family="Inter, Arial, sans-serif" font-size="28" font-weight="800" fill="#f8fafc">есть</text>
      <rect x="480" y="0" width="210" height="72" rx="18" fill="#111827" stroke="#253043"/>
      <text x="504" y="30" font-family="Inter, Arial, sans-serif" font-size="15" fill="#94a3b8">Аналитика</text>
      <path d="M508 58 C530 35 548 42 570 30 C600 14 626 38 658 20" fill="none" stroke="#f59e0b" stroke-width="4" stroke-linecap="round"/>
    </g>
  </g>
</svg>
